HIERARCHY
ROOT Pelvis
{
	OFFSET 0.000000 0.000000 0.000000
	CHANNELS 6 Xposition Yposition Zposition Xrotation Yrotation Zrotation
	JOINT LeftUpLeg_virtual
	{
		OFFSET 0.000000 0.000000 0.000000
		CHANNELS 3 Xrotation Yrotation Zrotation
		JOINT LeftUpLeg
		{
			OFFSET 18.735201 -5.666702 -4.541200
			CHANNELS 3 Xrotation Yrotation Zrotation
			JOINT LeftLeg
			{
				OFFSET -0.021200 -31.938179 0.493100
				CHANNELS 3 Xrotation Yrotation Zrotation
				JOINT LeftFoot
				{
					OFFSET 0.021200 -31.938179 -4.336299
					CHANNELS 3 Xrotation Yrotation Zrotation
					JOINT LeftToeBase
					{
						OFFSET 0.943001 -26.722000 15.023500
						CHANNELS 3 Xrotation Yrotation Zrotation
						End Site
						{
							OFFSET 0 0 0
						}
					}
				}
			}
		}
	}
	JOINT RightUpLeg_virtual
	{
		OFFSET 0.000000 0.000000 0.000000
		CHANNELS 3 Xrotation Yrotation Zrotation
		JOINT RightUpLeg
		{
			OFFSET -18.735201 -5.666702 -4.541200
			CHANNELS 3 Xrotation Yrotation Zrotation
			JOINT RightLeg
			{
				OFFSET 0.018946 -31.938133 0.493100
				CHANNELS 3 Xrotation Yrotation Zrotation
				JOINT RightFoot
				{
					OFFSET -0.018946 -31.938126 -4.336299
					CHANNELS 3 Xrotation Yrotation Zrotation
					JOINT RightToeBase
					{
						OFFSET -0.943001 -26.722004 15.023500
						CHANNELS 3 Xrotation Yrotation Zrotation
						End Site
						{
							OFFSET 0 0 0
						}
					}
				}
			}
		}
	}
	JOINT Hips_virtual
	{
		OFFSET 0.000000 0.000000 0.000000
		CHANNELS 3 Xrotation Yrotation Zrotation
		JOINT Hips
		{
			OFFSET -0.000000 -0.000000 -0.000000
			CHANNELS 3 Xrotation Yrotation Zrotation
			JOINT Spine
			{
				OFFSET 0.000000 10.199997 -0.299500
				CHANNELS 3 Xrotation Yrotation Zrotation
				JOINT Spine1
				{
					OFFSET 0.000000 11.900002 -1.516600
					CHANNELS 3 Xrotation Yrotation Zrotation
					JOINT Spine2
					{
						OFFSET 0.000000 13.600006 -2.842500
						CHANNELS 3 Xrotation Yrotation Zrotation
						JOINT Neck_virtual
						{
							OFFSET 0.000000 0.000000 0.000000
							CHANNELS 3 Xrotation Yrotation Zrotation
							JOINT Neck
							{
								OFFSET 0.000000 9.624100 -2.890100
								CHANNELS 3 Xrotation Yrotation Zrotation
								JOINT Head
								{
									OFFSET 0.000000 14.068802 -1.351900
									CHANNELS 3 Xrotation Yrotation Zrotation
									End Site
									{
										OFFSET 0 0 0
									}
								}
							}
						}
						JOINT LeftShoulder_virtual
						{
							OFFSET 0.000000 0.000000 0.000000
							CHANNELS 3 Xrotation Yrotation Zrotation
							JOINT LeftShoulder
							{
								OFFSET 15.263000 10.923401 -0.547700
								CHANNELS 3 Xrotation Yrotation Zrotation
								JOINT LeftArm
								{
									OFFSET 25.438599 -2.830597 -13.032500
									CHANNELS 3 Xrotation Yrotation Zrotation
									JOINT LeftForeArm
									{
										OFFSET 29.960503 0.000000 0.000000
										CHANNELS 3 Xrotation Yrotation Zrotation
										JOINT LeftHand
										{
											OFFSET 27.849251 0.000000 0.000000
											CHANNELS 3 Xrotation Yrotation Zrotation
											End Site
											{
												OFFSET 0 0 0
											}
										}
									}
								}
							}
						}
						JOINT RightShoulder_virtual
						{
							OFFSET 0.000000 0.000000 0.000000
							CHANNELS 3 Xrotation Yrotation Zrotation
							JOINT RightShoulder
							{
								OFFSET -15.263000 10.923401 -0.547700
								CHANNELS 3 Xrotation Yrotation Zrotation
								JOINT RightArm
								{
									OFFSET -25.438599 -2.830597 -13.032500
									CHANNELS 3 Xrotation Yrotation Zrotation
									JOINT RightForeArm
									{
										OFFSET -29.960503 0.000000 0.000000
										CHANNELS 3 Xrotation Yrotation Zrotation
										JOINT RightHand
										{
											OFFSET -27.849251 0.000000 0.000000
											CHANNELS 3 Xrotation Yrotation Zrotation
											End Site
											{
												OFFSET 0 0 0
											}
										}
									}
								}
							}
						}
					}
				}
			}
		}
	}
}
MOTION
Frames: 4
Frame Time: 0.03333333
-0.031626 133.559479 4.652098 0.000000 0.000000 0.000000 -1.011406 1.574545 0.837726 -33.595856 8.709194 3.768311 43.309167 14.387735 1.452058 41.792702 2.535362 8.291207 0.000000 0.000000 0.000000 -1.011406 1.574545 0.837726 -11.028069 -6.941955 -6.611097 22.063574 -19.414300 1.569015 52.639356 0.362730 1.060453 0.000000 0.000000 0.000000 -1.011406 1.574545 0.837726 0.000000 0.000000 0.000000 -2.805794 -0.008241 -0.516978 -5.611654 -0.102272 -0.620860 0.000000 0.000000 0.000000 -5.611650 -0.102272 -0.620859 -5.558589 0.078776 -0.525492 0.000000 0.000000 0.000000 -5.611650 -0.102272 -0.620859 7.248321 6.365627 32.385158 -52.895314 -36.819883 5.857836 -23.466848 -23.506882 1.478701 0.000000 0.000000 0.000000 -5.611650 -0.102272 -0.620859 2.277537 -6.651284 -36.122579 -64.303861 35.763888 7.685053 -24.527665 16.757145 0.686871 0.000000 0.000000 0.000000 
0.193434 133.897110 4.253860 0.000000 0.000000 0.000000 -0.858212 1.405249 0.759006 -34.846508 8.421104 3.566860 44.359811 10.236866 1.236031 42.045480 2.007392 4.337755 0.000000 0.000000 0.000000 -0.858212 1.405249 0.759006 -12.931554 -6.601242 -8.100970 30.012729 -18.119881 2.880335 47.252895 1.071022 3.850132 0.000000 0.000000 0.000000 -0.858212 1.405249 0.759006 0.000000 0.000000 0.000000 -2.727176 0.121799 -0.379839 -5.454584 0.132121 -0.464096 0.000000 0.000000 0.000000 -5.454584 0.132120 -0.464096 -5.790763 0.079957 -0.671771 0.000000 0.000000 0.000000 -5.454584 0.132120 -0.464096 7.446502 6.603388 32.450335 -54.448909 -35.183776 3.471677 -24.716307 -26.798657 2.385710 0.000000 0.000000 0.000000 -5.454584 0.132120 -0.464096 2.388919 -6.364265 -35.754599 -64.004992 34.598224 7.322064 -24.670420 19.891099 0.003019 0.000000 0.000000 0.000000 
0.423098 134.354889 3.645567 0.000000 0.000000 0.000000 -0.598408 0.900411 0.586900 -36.580113 8.185521 3.051116 46.011631 4.922676 0.915234 41.566383 1.976699 0.987297 0.000000 0.000000 0.000000 -0.598408 0.900411 0.586900 -14.811431 -6.158020 -9.608474 38.414551 -13.917277 4.185594 40.051321 1.866171 9.116668 0.000000 0.000000 0.000000 -0.598408 0.900411 0.586900 0.000000 0.000000 0.000000 -2.639904 0.330922 -0.161625 -5.279451 0.526127 -0.270102 0.000000 0.000000 0.000000 -5.279449 0.526128 -0.270102 -5.885458 0.038023 -0.715305 0.000000 0.000000 0.000000 -5.279449 0.526128 -0.270102 7.870904 7.117304 32.582263 -57.915872 -34.418464 -0.704290 -26.183267 -29.980118 4.243749 0.000000 0.000000 0.000000 -5.279449 0.526128 -0.270102 2.490095 -6.094539 -35.392848 -63.972399 33.630718 7.079523 -24.776943 22.588523 -0.847465 0.000000 0.000000 0.000000 
0.619272 134.818024 2.867830 0.000000 0.000000 0.000000 -0.253866 0.062138 0.436472 -38.640023 8.009473 2.319332 48.124642 -0.881721 0.523779 40.372599 2.267443 -1.984273 0.000000 0.000000 0.000000 -0.253866 0.062138 0.436472 -15.545273 -5.647488 -11.146791 44.739109 -8.327810 5.200872 32.801662 2.448835 15.572100 0.000000 0.000000 0.000000 -0.253866 0.062138 0.436472 0.000000 0.000000 0.000000 -2.549188 0.600627 0.022721 -5.097277 1.039580 -0.044115 0.000000 0.000000 0.000000 -5.097281 1.039579 -0.044115 -5.890012 -0.027373 -0.695702 0.000000 0.000000 0.000000 -5.097281 1.039579 -0.044115 8.458167 7.825095 32.740734 -62.473855 -34.058807 -5.800696 -27.569543 -32.988861 6.946101 0.000000 0.000000 0.000000 -5.097281 1.039579 -0.044115 2.587535 -5.828013 -35.023960 -64.095253 32.796311 6.908423 -24.852729 25.024778 -1.814144 0.000000 0.000000 0.000000 
